{
	"asset":{
		"version":"2.0",
		"generator":"Created using the official Cinema 4D glTF Exporter 1.000x290161"
	},
	"scenes":[{
		"nodes":[0]
	}],
	"nodes":[{
		"name":"CBc1.2",
		"translation":[0,
		0,
		0],
		"rotation":[0,
		-0.742,
		0,
		-0.671],
		"scale":[3.5,
		3.5,
		3.5],
		"mesh":0
	}],
	"meshes":[{
		"primitives":[{
			"attributes":{
				"POSITION":1,
				"TEXCOORD_0":2
			},
			"indices":0,
			"material":0
		}]
	}],
	"accessors":[{
		"bufferView":0,
		"type":"SCALAR",
		"componentType":5123,
		"count":19536,
		"byteOffset":0,
		"min":[1],
		"max":[5391]
	},
	{
		"bufferView":1,
		"type":"VEC3",
		"componentType":5126,
		"count":5392,
		"byteOffset":0,
		"min":[-140.389,
		-75.888,
		-268.239],
		"max":[140.389,
		76.049,
		235.408]
	},
	{
		"bufferView":1,
		"type":"VEC2",
		"componentType":5126,
		"count":5392,
		"byteOffset":12,
		"min":[0,
		0],
		"max":[0.999,
		0.999]
	}],
	"bufferViews":[{
		"buffer":0,
		"byteOffset":0,
		"byteLength":39072,
		"target":34963
	},
	{
		"buffer":0,
		"byteOffset":39072,
		"byteLength":107840,
		"target":34962,
		"byteStride":20
	}],
	"buffers":[{
		"uri":"data:application/octet-stream;base64,",
		"byteLength":146912
	}],
	"images":[{
		"uri":"data:image/jpeg;base64,"
	},
	{
		"uri":"data:image/jpeg;base64,"
	},
	{
		"uri":"data:image/jpeg;base64,"
	}],
	"samplers":[{
		"magFilter":9729,
		"minFilter":9729,
		"wrapS":10497,
		"wrapT":10497
	},
	{
		"magFilter":9729,
		"minFilter":9729,
		"wrapS":10497,
		"wrapT":10497
	},
	{
		"magFilter":9729,
		"minFilter":9729,
		"wrapS":10497,
		"wrapT":10497
	}],
	"textures":[{
		"sampler":0,
		"source":0
	},
	{
		"sampler":1,
		"source":1
	},
	{
		"sampler":2,
		"source":2
	}],
	"materials":[{
		"pbrMetallicRoughness":{
			"baseColorTexture":{
				"index":0
			},
			"metallicFactor":0,
			"baseColorFactor":[1,
			1,
			1,
			1],
			"roughnessFactor":0.734
		},
		"normalTexture":{
			"index":1,
			"scale":1
		},
		"doubleSided":false,
		"emissiveTexture":{
			"index":2
		},
		"emissiveFactor":[0.76,
		1,
		1],
		"alphaMode":"OPAQUE",
		"name":"exhaust"
	}]
}