{
	"asset":{
		"version":"2.0",
		"generator":"Created using the official Cinema 4D glTF Exporter 1.000x290161"
	},
	"scenes":[{
		"nodes":[0]
	}],
	"nodes":[{
		"name":"Buildings.1",
		"mesh":0
	}],
	"meshes":[{
		"primitives":[{
			"attributes":{
				"POSITION":1
			},
			"indices":0,
			"material":0
		}]
	}],
	"accessors":[{
		"bufferView":0,
		"type":"SCALAR",
		"componentType":5123,
		"count":156102,
		"byteOffset":0,
		"min":[0],
		"max":[34989]
	},
	{
		"bufferView":1,
		"type":"VEC3",
		"componentType":5126,
		"count":34990,
		"byteOffset":0,
		"min":[-2839.428,
		-400,
		-2882.385],
		"max":[2821.429,
		7190.392,
		2839.429]
	}],
	"bufferViews":[{
		"buffer":0,
		"byteOffset":0,
		"byteLength":312204,
		"target":34963
	},
	{
		"buffer":0,
		"byteOffset":312204,
		"byteLength":419880,
		"target":34962
	}],
	"buffers":[{
		"uri":"data:application/octet-stream;base64,",
		"byteLength":732084
	}],
	"materials":[{
		"pbrMetallicRoughness":{
			"metallicFactor":0.5,
			"baseColorFactor":[0.305,
			0.357,
			0.43,
			1],
			"roughnessFactor":0.05
		},
		"emissiveFactor":[0,
		0,
		0],
		"alphaMode":"OPAQUE",
		"doubleSided":false,
		"name":""
	}]
}